<svg width="120" height="220" viewBox="0 0 120 220" fill="none" xmlns="http://www.w3.org/2000/svg">
<rect x="3" y="3" width="114" height="214" rx="9" stroke="white" stroke-width="6"/>
<path d="M60 65L96 77.6626L60 90.3252L24 77.6626L60 65Z" fill="white"/>
<path d="M96 77.6626L60 65L24 77.6626M96 77.6626L60 90.3252L24 77.6626M96 77.6626V141.337L60 154L24 141.337V77.6626" stroke="white" stroke-width="4"/>
<rect x="42" y="197" width="36" height="10" rx="4" fill="white"/>
<path d="M66 138.324V103.415L78.9421 98.7047C81.4195 97.803 83.5338 97.5051 85.2851 97.8109C87.047 98.1014 88.3871 98.9375 89.3054 100.319C90.2345 101.686 90.699 103.522 90.699 105.829C90.699 108.147 90.2291 110.312 89.2894 112.325C88.3497 114.326 86.9883 116.094 85.205 117.63C83.4324 119.161 81.286 120.386 78.7659 121.303L70.1005 124.457V118.525L77.6447 115.779C78.9688 115.297 80.0687 114.704 80.9443 113.999C81.8199 113.294 82.4713 112.477 82.8985 111.549C83.3363 110.617 83.5552 109.577 83.5552 108.429C83.5552 107.27 83.3363 106.372 82.8985 105.736C82.4713 105.096 81.8146 104.733 80.9283 104.647C80.0527 104.545 78.9475 104.737 77.6127 105.223L72.9356 106.925V135.8L66 138.324ZM83.7153 115.99L91.8682 128.909L84.2119 131.696L76.2352 118.713L83.7153 115.99Z" fill="white"/>
<path d="M34.827 129.93L28 127.445L38.4023 97.7861L46.6124 100.774L57 138L50.173 135.515L42.6251 106.966L42.3896 106.88L34.827 129.93ZM34.4003 116.628L50.5261 122.498V128.017L34.4003 122.148V116.628Z" fill="white"/>
</svg>
